<svg
  height="495pt"
  viewBox="0 -3 495.84394 495"
  width="495pt"
  xmlns="http://www.w3.org/2000/svg"
>
  <g class="path-content">
    <path d="m231.875 280.410156h32v158.160156h-32zm0 0" />
    <path
      d="m127.875 432.410156 40-56v-96h-31.199219l-.480469 56-.320312 32-32 48zm0 0"
    />
    <path d="m391.875 416.410156-32-48v-88h-32v96l40.71875 56zm0 0" />
  </g>
  <path class="path-border"
    d="m367.875 344.003906c71.574219-4.152344 127.597656-63.210937 127.96875-134.902344.367188-71.691406-55.042969-131.328124-126.570312-136.21875-32.640626-53.246093-94.5625-81.066406-156.046876-70.105468-61.484374 10.960937-109.984374 58.460937-122.214843 119.707031-56.722657 10.800781-95.925781 62.96875-90.519531 120.453125 5.402343 57.488281 53.640624 101.433594 111.382812 101.472656h16.214844l-.214844 21.546875-28.617188 42.917969c-15.683593 2.265625-27.339843 15.6875-27.382812 31.535156.023438 1.832032.210938 3.65625.550781 5.457032-1.1875 3.316406-.03125 7.019531 2.832031 9.070312.121094.070312.242188.132812.371094.1875 6.9375 14.222656 23.300782 21.160156 38.351563 16.257812 15.050781-4.902343 24.183593-20.148437 21.414062-35.730468l38.992188-54.59375c.96875-1.355469 1.488281-2.980469 1.488281-4.648438v-32h48v91.058594c-11.347656 12.863281-10.53125 32.386719 1.851562 44.261719 12.378907 11.871093 31.917969 11.871093 44.296876 0 12.382812-11.875 13.199218-31.398438 1.851562-44.261719v-91.058594h48v32c0 1.691406.535156 3.339844 1.527344 4.707032l39.039062 53.6875c-.355468 1.847656-.542968 3.722656-.566406 5.605468-.070312 17.09375 13.304688 31.226563 30.375 32.09375 17.070312.867188 31.8125-11.835937 33.472656-28.847656 1.664063-17.011719-10.339844-32.328125-27.253906-34.78125l-28.59375-42.863281zm-264 112.40625c-8.835938 0-16-7.164062-16-16 0-8.835937 7.164062-16 16-16s16 7.164063 16 16c0 8.835938-7.164062 16-16 16zm56-82.558594-32.3125 45.238282c-2.960938-3.320313-6.585938-5.988282-10.640625-7.832032l25.601563-38.398437c.863281-1.296875 1.332031-2.8125 1.351562-4.367187l.296875-31.945313c0-.046875 0-.085937 0-.136719v-.117187l.4375-47.882813h15.265625zm96 51.695313c-5.226562-1.515625-10.773438-1.515625-16 0v-137.136719h16zm-8 46.863281c-8.835938 0-16-7.164062-16-16 0-8.835937 7.164062-16 16-16s16 7.164063 16 16c0 8.835938-7.164062 16-16 16zm24-144v-48c0-4.417968-3.582031-8-8-8h-32c-4.417969 0-8 3.582032-8 8v48h-48v-48c0-4.417968-3.582031-8-8-8h-31.199219c-4.390625 0-7.960937 3.539063-8 7.929688l-.433593 48.070312h-16.367188c-50.488281.011719-92.34375-39.101562-95.753906-89.472656s32.796875-94.765625 82.824218-101.558594c3.496094-.472656 6.265626-3.175781 6.824219-6.65625 9.105469-56.828125 53.042969-101.746094 109.660157-112.101562 56.613281-10.355469 113.605468 16.101562 142.238281 66.03125 1.375 2.386718 3.882812 3.898437 6.640625 4 63.75 2.332031 114.5 54.195312 115.453125 117.980468.949219 63.785157-48.234375 117.140626-111.886719 121.371094v-47.59375c0-4.417968-3.582031-8-8-8h-32c-4.417969 0-8 3.582032-8 8v48zm136 112c0 8.835938-7.164062 16-16 16s-16-7.164062-16-16c0-8.835937 7.164062-16 16-16s16 7.164063 16 16zm-29.046875-29.152344c-3.902344 1.765626-7.410156 4.296876-10.3125 7.441407l-32.640625-44.886719v-85.402344h16v80c.003906 1.582032.46875 3.125 1.34375 4.441406zm0 0"
  />
</svg>
