<svg
  height="512pt"
  viewBox="0 -16 512.00042 512"
  width="512pt"
  xmlns="http://www.w3.org/2000/svg"
>
  <path class="path-border"
    d="m506.320312 169.78125-72.515624-141.78125c-8.832032-17.269531-26.371094-28-45.769532-28h-264.070312c-19.398438 0-36.9375 10.730469-45.769532 28l-72.515624 141.78125c-9.585938 18.742188-6.875 41.136719 6.902343 57.054688l204.546875 236.316406c9.773438 11.289062 23.941406 17.761718 38.871094 17.761718 14.933594 0 29.101562-6.472656 38.871094-17.761718l204.550781-236.316406c13.777344-15.917969 16.484375-38.3125 6.898437-57.054688zm-102.742187-151.074219-48.242187 160.847657-86.722657-164.347657h119.421875c5.5 0 10.78125 1.242188 15.542969 3.5zm-58.902344 173.222657h-177.34375l88.671875-168.039063zm-101.28125-176.722657-86.722656 164.347657-48.242187-160.847657c4.761718-2.257812 10.035156-3.5 15.535156-3.5zm-151.660156 19.71875c1.105469-2.164062 2.414063-4.171875 3.878906-6.027343l48.894531 163.03125h-129.253906c.1875-5.1875 1.488282-10.378907 3.964844-15.226563zm161.785156 430.6875-51.332031-150.484375c-1.355469-3.972656-5.675781-6.09375-9.648438-4.742187-3.972656 1.355469-6.097656 5.679687-4.742187 9.652343l47.453125 139.121094c-2.417969-1.695312-4.652344-3.683594-6.621094-5.960937l-204.550781-236.316407c-2.574219-2.96875-4.578125-6.269531-6.039063-9.75h131.246094l28.570313 83.761719c1.078125 3.160157 4.035156 5.152344 7.195312 5.152344.816407 0 1.644531-.132813 2.457031-.410156 3.972657-1.355469 6.097657-5.675781 4.742188-9.648438l-26.898438-78.855469h181.292969l-88.15625 258.480469c-.824219.058594-1.652343.097657-2.488281.097657-.832031 0-1.660156-.039063-2.480469-.097657zm29.855469-12.414062c-1.96875 2.277343-4.199219 4.261719-6.617188 5.957031l85.953126-252.023438h33.179687c4.199219 0 7.605469-3.402343 7.605469-7.601562s-3.40625-7.601562-7.605469-7.601562h-28.390625l48.894531-163.023438c1.460938 1.851562 2.769531 3.859375 3.871094 6.019531l72.515625 141.777344c2.480469 4.847656 3.777344 10.039063 3.964844 15.226563h-70.441406c-4.199219 0-7.601563 3.402343-7.601563 7.601562s3.402344 7.601562 7.601563 7.601562h67.65625c-1.460938 3.480469-3.464844 6.78125-6.039063 9.75zm0 0"
  />
</svg>
