<svg
  height="496pt"
  viewBox="0 -52 496 496"
  width="496pt"
  xmlns="http://www.w3.org/2000/svg"
>
  <g class="path-content">
    <path
      d="m312 172.640625v19.359375l-8 8-8 16h-24l-24 8h-24l-16-16h-24l-7.921875-31.679688c42.75-20.394531 92.132813-21.734374 135.921875-3.679687zm0 0"
    />
    <path
      d="m280 352-24-8-16-8-16-24-40-8-24 16-8 16h-24l-16 16 16 32h160v-16zm0 0"
    />
    <path d="m376 344-16-16-8-24-16-8-16 24 8 16v24l-8 16v8h56l8-24zm0 0" />
    <path
      d="m472 8h-448c-8.835938 0-16 7.164062-16 16v64h480v-64c0-8.835938-7.164062-16-16-16zm-424 56c-8.835938 0-16-7.164062-16-16s7.164062-16 16-16 16 7.164062 16 16-7.164062 16-16 16zm56 0c-8.835938 0-16-7.164062-16-16s7.164062-16 16-16 16 7.164062 16 16-7.164062 16-16 16zm56 0c-8.835938 0-16-7.164062-16-16s7.164062-16 16-16 16 7.164062 16 16-7.164062 16-16 16zm0 0"
    />
  </g>
  <g class="path-border">
    <path
      d="m48 24c-13.253906 0-24 10.746094-24 24s10.746094 24 24 24 24-10.746094 24-24-10.746094-24-24-24zm0 32c-4.417969 0-8-3.582031-8-8s3.582031-8 8-8 8 3.582031 8 8-3.582031 8-8 8zm0 0"
    />
    <path
      d="m104 24c-13.253906 0-24 10.746094-24 24s10.746094 24 24 24 24-10.746094 24-24-10.746094-24-24-24zm0 32c-4.417969 0-8-3.582031-8-8s3.582031-8 8-8 8 3.582031 8 8-3.582031 8-8 8zm0 0"
    />
    <path
      d="m160 24c-13.253906 0-24 10.746094-24 24s10.746094 24 24 24 24-10.746094 24-24-10.746094-24-24-24zm0 32c-4.417969 0-8-3.582031-8-8s3.582031-8 8-8 8 3.582031 8 8-3.582031 8-8 8zm0 0"
    />
    <path
      d="m472 0h-448c-13.253906 0-24 10.746094-24 24v360c0 4.417969 3.582031 8 8 8h480c4.417969 0 8-3.582031 8-8v-360c0-13.253906-10.746094-24-24-24zm-456 24c0-4.417969 3.582031-8 8-8h448c4.417969 0 8 3.582031 8 8v56h-464zm72 304c.058594-58.246094 31.75-111.859375 82.742188-140l5.496093 21.96875c.902344 3.550781 4.097657 6.035156 7.761719 6.03125h20.6875l13.65625 13.65625c1.5 1.5 3.535156 2.34375 5.65625 2.34375h24c.859375 0 1.710938-.136719 2.527344-.40625l22.769531-7.59375h22.703125c3.046875.015625 5.839844-1.699219 7.199219-4.425781l7.417969-14.839844 7.078124-7.078125c1.488282-1.507812 2.316407-3.539062 2.304688-5.65625v-6.6875c70.132812 35.0625 104.289062 115.972656 80.503906 190.6875h-13.398437l4.488281-13.472656c.667969-2.011719.511719-4.207032-.433594-6.101563l-8-16c-.390625-.769531-.898437-1.472656-1.503906-2.082031l-14.664062-14.664062-7.398438-22.207032c-.667969-2.015625-2.105469-3.679687-4-4.632812l-16-8c-3.609375-1.800782-7.996094-.636719-10.234375 2.71875l-16 24c-1.585937 2.386718-1.78125 5.4375-.503906 8l7.199219 14.3125v20.226562l-7.199219 14.308594c-.5625 1.117188-.855469 2.347656-.855469 3.59375h-16v-8c.011719-1.238281-.261719-2.460938-.800781-3.574219l-8-16c-.953125-1.894531-2.617188-3.335937-4.632813-4l-23.453125-7.816406-13.601562-6.800781-14.824219-22.234375c-1.179688-1.761719-3.007812-2.984375-5.085938-3.398438l-40-8c-2.082031-.425781-4.246093 0-6.007812 1.183594l-24 16c-1.160156.777344-2.09375 1.835937-2.722656 3.082031l-5.816406 11.558594h-19.054688c-2.121094 0-4.15625.84375-5.65625 2.34375l-16 16c-2.433594 2.433594-3.042969 6.152344-1.503906 9.230469l10.214844 20.425781h-19.558594c-4.949219-15.519531-7.476563-31.710938-7.496094-48zm97.441406-147.199219c37.707032-16.136719 80.203125-17.027343 118.558594-2.488281v10.398438l-5.65625 5.65625c-.605469.609374-1.113281 1.3125-1.503906 2.082031l-5.785156 11.550781h-19.054688c-.859375 0-1.710938.136719-2.527344.40625l-22.769531 7.59375h-19.390625l-13.65625-13.65625c-1.5-1.5-3.535156-2.34375-5.65625-2.34375h-17.753906zm143.503906 195.199219 6.214844-12.425781c.554688-1.109375.839844-2.332031.839844-3.574219v-24c.011719-1.238281-.261719-2.460938-.800781-3.574219l-5.925781-11.851562 9.503906-14.261719 6.71875 3.359375 6.953125 20.855469c.394531 1.179687 1.058593 2.25 1.933593 3.128906l15.082032 15.078125 5.933594 11.882813-5.167969 15.382812zm-196 0-11.203124-22.398438 9.601562-9.601562h20.65625c3.03125 0 5.804688-1.710938 7.160156-4.425781l7.046875-14.09375 19.472657-12.984375 33.519531 6.703125 14.160156 21.25c.777344 1.15625 1.835937 2.09375 3.082031 2.71875l16 8c.335938.167969.6875.3125 1.046875.433593l20.855469 6.949219 5.65625 11.335938v6.113281zm284.285157 0c18.820312-66.105469-2.597657-137.113281-54.828125-181.785156-52.230469-44.675782-125.703125-54.828125-188.089844-25.992188-.082031 0-.167969 0-.257812 0-1.089844.277344-2.109376.789063-2.984376 1.496094-76.828124 37.171875-115.785156 124.222656-92.300781 206.28125h-62.769531v-280h464v280zm0 0"
    />
  </g>
</svg>
