<svg
  height="496pt"
  viewBox="0 0 496.1216 496"
  width="496pt"
  xmlns="http://www.w3.org/2000/svg"
>
  <g class="path-content">
    <path
      d="m274.863281 392.0625-1.679687-1.441406c-8.722656-7.359375-17.121094-14.71875-25.121094-21.839844-8.480469 7.519531-17.441406 15.359375-26.800781 23.28125-37.441407 31.597656-80.320313 63.917969-117.199219 81.839844v14.160156h288v-14.160156c-36.960938-17.921875-79.839844-50.242188-117.199219-81.839844zm-26.800781 72c-13.253906 0-24-10.746094-24-24 0-13.257812 10.746094-24 24-24s24 10.742188 24 24c0 13.253906-10.746094 24-24 24zm0 0"
    />
    <path
      d="m474.941406 474.941406c-9.039062 8.769532-21.25 13.503906-33.839844 13.121094-17.175781-1.136719-33.902343-5.96875-49.039062-14.160156-36.960938-17.921875-79.839844-50.242188-117.199219-81.839844l-1.679687-1.441406-25.121094-21.839844c8.320312-7.441406 16.160156-14.558594 23.28125-21.199219 18.636719 16.480469 36.71875 31.277344 54 44.480469 21.15625 16.53125 43.449219 31.554688 66.71875 44.957031 33.441406 18.722657 58.078125 24.960938 68 15.042969 16.640625-16.640625-12-74.082031-68-145.042969v-32.078125c19.546875 22.960938 37.863281 46.941406 54.878906 71.839844 29.28125 43.359375 58.960938 97.121094 28 128.160156zm0 0"
    />
    <path
      d="m392.0625 392.0625h-66.738281c21.164062 16.535156 43.464843 31.558594 66.738281 44.957031zm0 0"
    />
    <path
      d="m271.34375 347.582031c18-16.714843 31.855469-30.351562 38.871094-37.371093 29.839844-29.839844 57.597656-60 81.839844-88.878907 19.546874-22.988281 37.867187-46.996093 54.878906-71.917969 29.28125-43.359374 58.960937-97.121093 28-128.082031-9.027344-8.796875-21.238282-13.5625-33.839844-13.199219-17.171875 1.140626-33.898438 5.972657-49.03125 14.167969v26.480469c27.28125-13.679688 47.28125-17.441406 56-8.71875 15.359375 15.359375-8 65.757812-56 129.519531-32.550781 42.523438-67.964844 82.777344-106 120.480469-12.746094 12.746094-25.414062 24.945312-38 36.597656-7.824219 7.199219-15.558594 14.160156-23.242188 20.921875-37.152343 33.78125-77.609374 63.746094-120.757812 89.4375-33.441406 18.722657-58.082031 24.960938-68 15.042969-16.640625-16.640625 12-74.082031 68-145.042969v-32.078125c-19.546875 22.960938-37.867188 46.941406-54.878906 71.839844-29.28125 43.359375-58.960938 97.121094-28 128.160156 9.039062 8.769532 21.25 13.503906 33.839844 13.121094 17.171874-1.136719 33.902343-5.96875 49.039062-14.160156 55.152344-26.808594 123.527344-85.699219 167.289062-126.3125zm0 0"
    />
    <path
      d="m224.78125 347.582031c7.679688-6.761719 15.417969-13.6875 23.242188-20.921875-12.546876-11.664062-25.257813-23.894531-37.960938-36.597656-38.035156-37.703125-73.449219-77.957031-106-120.480469-48-63.761719-71.359375-114.160156-56-129.519531 8.71875-8.722656 28.71875-4.960938 56 8.71875v-26.480469c-15.136719-8.195312-31.867188-13.023437-49.039062-14.160156-12.601563-.363281-24.8125 4.402344-33.839844 13.199219-30.960938 30.960937-1.28125 84.722656 28 128.082031 17.011718 24.921875 35.332031 48.929687 54.878906 71.917969 24.238281 28.882812 52 59.039062 81.839844 88.882812 7.039062 7.039063 20.878906 20.636719 38.878906 37.359375zm0 0"
    />
    <path
      d="m104.0625 437.019531c23.261719-13.398437 45.546875-28.425781 66.695312-44.957031h-66.695312zm0 0"
    />
    <path d="m104.0625 72.0625h288v-64h-288zm184-32" />
    <path d="m248.0625 368.0625-24 24h48zm0 0" />
  </g>
  <g class="path-border">
    <path
      d="m248.0625 408.0625c-17.671875 0-32 14.324219-32 32 0 17.671875 14.328125 32 32 32s32-14.328125 32-32c0-17.675781-14.328125-32-32-32zm0 48c-8.835938 0-16-7.164062-16-16 0-8.839844 7.164062-16 16-16s16 7.160156 16 16c0 8.835938-7.164062 16-16 16zm0 0"
    />
    <path
      d="m288.0625 32.0625h-80c-4.417969 0-8 3.578125-8 8 0 4.417969 3.582031 8 8 8h80c4.417969 0 8-3.582031 8-8 0-4.421875-3.582031-8-8-8zm0 0"
    />
    <path
      d="m320.0625 32.0625h-8c-4.417969 0-8 3.578125-8 8 0 4.417969 3.582031 8 8 8h8c4.417969 0 8-3.582031 8-8 0-4.421875-3.582031-8-8-8zm0 0"
    />
    <path
      d="m453.566406 342.300781c-16.613281-24.320312-34.472656-47.761719-53.503906-70.238281v-47.859375c19.039062-22.496094 36.894531-45.964844 53.503906-70.308594 31.015625-45.921875 62.121094-103.128906 26.992188-138.242187-10.523438-10.277344-24.75-15.871094-39.457032-15.511719-14.1875.578125-28.128906 3.914063-41.039062 9.824219v-1.902344c0-4.421875-3.582031-8-8-8h-288c-4.417969 0-8 3.578125-8 8v1.902344c-12.910156-5.910156-26.851562-9.246094-41.039062-9.824219-14.722657-.355469-28.964844 5.25-39.496094 15.542969-35.082032 35.082031-4 92.289062 27.023437 138.210937 16.613281 24.34375 34.476563 47.816407 53.511719 70.316407v47.851562c-19.03125 22.476562-36.890625 45.917969-53.503906 70.238281-31.007813 45.921875-62.113282 103.128907-26.992188 138.328125 10.535156 10.25 24.761719 15.816406 39.457032 15.433594 14.1875-.578125 28.128906-3.917969 41.039062-9.832031v1.832031c0 4.417969 3.582031 8 8 8h288c4.417969 0 8-3.582031 8-8v-1.832031c12.910156 5.917969 26.851562 9.257812 41.039062 9.832031 14.714844.378906 28.960938-5.199219 39.503907-15.472656 35.074219-35.160156 3.96875-92.367188-27.039063-138.289063zm-69.503906 41.761719h-56c-14.480469-11.152344-29.480469-23.472656-44.710938-36.691406 14.132813-13.285156 25.476563-24.4375 32.535157-31.496094 24.480469-24.476562 47.28125-48.933594 68.183593-72.964844zm0 16v23.007812c-10.792969-6.5625-22.402344-14.328124-34.480469-23.007812zm16-69.433594c52.96875 70.984375 62.105469 108 54.34375 115.777344-4.640625 4.621094-21.734375 3.375-54.34375-14.203125zm-152-14.945312c-10.960938-10.292969-21.832031-20.796875-32.34375-31.277344-37.128906-36.835938-71.757812-76.105469-103.65625-117.554688v-86.789062h272v86.796875c-31.898438 41.445313-66.527344 80.710937-103.65625 117.546875-10.785156 10.78125-21.566406 21.210938-32.34375 31.277344zm-152-243.621094v72.878906c-45.71875-65.03125-48.257812-93.304687-42.34375-99.222656 4-4 17.335938-3.699219 42.34375 8.132812zm304 0v-18.210938c24.992188-11.832031 38.320312-12.160156 42.34375-8.132812 5.910156 5.917969 3.375 34.191406-42.34375 99.199219zm-288-56h272v48h-272zm-85.257812 10.972656c7.535156-7.316406 17.722656-11.25 28.21875-10.894531 14.308593.964844 28.273437 4.832031 41.039062 11.367187v8.695313c-26.039062-11.199219-43.65625-11.796875-53.65625-1.796875-23.640625 23.628906 17.007812 89.167969 55.253906 139.992188 32.78125 42.820312 68.445313 83.351562 106.746094 121.320312 10.398438 10.398438 21.085938 20.6875 31.886719 30.855469-3.789063 3.460937-7.570313 6.867187-11.335938 10.222656-15.789062-14.792969-27.527343-26.398437-33.398437-32.230469-29.746094-29.746094-57.121094-59.480468-81.375-88.378906-19.378906-22.769531-37.539063-46.554688-54.402344-71.246094-27.542969-40.832031-55.71875-91.136718-28.976562-117.90625zm69.257812 405.167969c-32.609375 17.601563-49.703125 18.816406-54.34375 14.203125-7.761719-7.761719 1.375-44.800781 54.34375-115.777344zm16-32.140625h34.640625c-12.097656 8.65625-23.6875 16.375-34.640625 23.015625zm56.144531-16h-56.144531v-141.144531c20.910156 24 43.703125 48.480469 68.183594 72.957031 5.800781 5.800781 17.238281 17.089844 32.640625 31.546875-15.273438 13.238281-30.234375 25.503906-44.679688 36.640625zm-141.359375 85.230469c-26.785156-26.886719 1.390625-77.230469 28.957032-118.03125 11.746093-17.359375 25.257812-35.488281 40.257812-54.058594v7.050781c-36.800781 46.894532-92.207031 126.910156-65.65625 153.464844 5.222656 4.929688 12.238281 7.496094 19.40625 7.101562 14.058594 0 33.320312-6.917968 58.144531-20.800781 41.128907-22.917969 92.746094-62.605469 145.785157-111.734375.046874-.054687.128906-.074218.175781-.128906l.054687-.085938c12.546875-11.628906 25.125-23.742187 37.746094-36.34375 38.296875-37.972656 73.960938-78.507812 106.742188-121.328124 38.257812-50.824219 78.90625-116.363282 55.265624-140-10-10-27.617187-9.433594-53.65625 1.796874v-8.6875c12.765626-6.535156 26.726563-10.402343 41.03125-11.367187 10.480469-.355469 20.652344 3.5625 28.183594 10.855469 26.808594 26.808594-1.398437 77.113281-28.976562 117.953125-16.863282 24.691406-35.019532 48.472656-54.398438 71.246093-24.25 28.890626-51.625 58.625-81.367187 88.371094-20.480469 20.460938-126.480469 124.46875-203.960938 162.132813-14.054687 7.664062-29.59375 12.222656-45.558593 13.363281-10.464844.378906-20.632813-3.507812-28.175782-10.769531zm221.277344-89.839844c1.777344 1.601563 3.511719 3.070313 5.273438 4.609375h-10.496094c1.777344-1.554688 3.488281-3.066406 5.222656-4.609375zm-136.0625 100.609375v-1.320312c40.066406-22.171876 77.65625-48.546876 112.136719-78.679688h47.863281c34.347656 30.234375 71.90625 56.621094 112 78.679688v1.320312zm357.253906-10.816406c-7.542968 7.285156-17.730468 11.191406-28.214844 10.816406-15.960937-1.140625-31.496093-5.695312-45.542968-13.363281-35.199219-17.070313-81.945313-50.972657-135.402344-97.972657 3.921875-3.539062 7.746094-7.019531 11.402344-10.402343 35.941406 32.34375 74.996094 61.042969 116.597656 85.679687 24.800781 13.898438 44.097656 20.800782 58.152344 20.800782 7.171875.394531 14.1875-2.171876 19.410156-7.105469 26.550781-26.535157-28.855469-106.550781-65.65625-153.445313v-7.050781c15 18.570313 28.511719 36.699219 40.246094 54.050781 27.578125 40.808594 55.753906 91.152344 29.007812 117.992188zm0 0"
    />
  </g>
</svg>
