<svg
  height="496pt"
  viewBox="-64 0 496 496"
  width="496pt"
  xmlns="http://www.w3.org/2000/svg"
>
  <g class="path-content">
    <path d="m288 256-40 8 32 32zm0 0"/>
    <path d="m280 488 80-80h-80zm0 0"/>
  </g>
  <g class="path-border">
    <path
      d="m64 152c-4.417969 0-8 3.582031-8 8s3.582031 8 8 8h48c4.417969 0 8-3.582031 8-8v-48c0-4.417969-3.582031-8-8-8h-40v-32h40c4.417969 0 8-3.582031 8-8s-3.582031-8-8-8h-48c-4.417969 0-8 3.582031-8 8v48c0 4.417969 3.582031 8 8 8h40v32zm0 0"
    />
    <path
      d="m160 168h48c4.417969 0 8-3.582031 8-8s-3.582031-8-8-8h-40v-32h40c4.417969 0 8-3.582031 8-8s-3.582031-8-8-8h-40v-32h40c4.417969 0 8-3.582031 8-8s-3.582031-8-8-8h-48c-4.417969 0-8 3.582031-8 8v96c0 4.417969 3.582031 8 8 8zm0 0"
    />
    <path
      d="m256 168h48c4.417969 0 8-3.582031 8-8v-96c0-4.417969-3.582031-8-8-8h-48c-4.417969 0-8 3.582031-8 8v96c0 4.417969 3.582031 8 8 8zm8-96h32v80h-32zm0 0"
    />
    <path
      d="m304 376c4.417969 0 8-3.582031 8-8s-3.582031-8-8-8h-232v-152c0-4.417969-3.582031-8-8-8s-8 3.582031-8 8v160c0 4.417969 3.582031 8 8 8zm0 0"
    />
    <path
      d="m164.910156 241.6875c-2.886718-2.246094-6.933594-2.246094-9.820312 0l-72 56c-2.328125 1.730469-3.539063 4.585938-3.160156 7.460938.375 2.875 2.28125 5.320312 4.976562 6.394531 2.691406 1.070312 5.757812.601562 8.003906-1.230469l67.089844-52.175781 67.089844 52.175781c2.84375 2.214844 6.824218 2.25 9.710937.085938l26.445313-19.839844 11.097656 11.097656c2.082031 2.082031 5.140625 2.851562 7.960938 2.003906 2.820312-.847656 4.945312-3.175781 5.535156-6.058594l8-40c.539062-2.632812-.28125-5.359374-2.179688-7.261718-1.902344-1.898438-4.628906-2.71875-7.261718-2.179688l-40 8c-2.890626.578125-5.226563 2.703125-6.082032 5.523438-.855468 2.824218-.085937 5.886718 1.996094 7.972656l9.480469 9.480469-19.738281 14.800781zm112.898438 24.503906-2.71875 13.601563-10.867188-10.863281zm0 0"
    />
    <path
      d="m367.902344 408.496094c0-.175782.097656-.328125.097656-.496094v-400c0-4.417969-3.582031-8-8-8h-352c-4.417969 0-8 3.582031-8 8v480c0 4.417969 3.582031 8 8 8h272c2.121094-.003906 4.152344-.847656 5.65625-2.34375l80-80c.667969-.679688 1.210938-1.472656 1.601562-2.34375.109376-.25.175782-.488281.261719-.746094.21875-.667968.347657-1.367187.382813-2.070312zm-351.902344-392.496094h336v384h-72c-4.417969 0-8 3.582031-8 8v72h-256zm272 452.6875v-52.6875h52.6875zm0 0"
    />
  </g>
</svg>
