<svg height="496pt" viewBox="0 0 496.18277 496" width="496pt" xmlns="http://www.w3.org/2000/svg"><path d="m424.128906 8.089844c-19.339844-.015625-37.644531 8.71875-49.796875 23.761718-12.152343 15.042969-16.84375 34.777344-12.761719 53.679688 7.054688 32.847656 38.308594 54.648438 71.574219 49.921875 33.261719-4.726563 57.210938-34.367187 54.835938-67.882813-2.371094-33.511718-30.253907-59.488281-63.851563-59.480468zm0 96c-17.671875 0-32-14.328125-32-32s14.328125-32 32-32 32 14.328125 32 32-14.328125 32-32 32zm0 0" fill="#57a4ff"/><path d="m424.128906 360.089844c-30.164062.007812-56.226562 21.070312-62.558594 50.558594-5.699218 26.519531 5.941407 53.75 29.046876 67.957031 23.105468 14.210937 52.65625 12.308593 73.753906-4.738281 21.09375-17.050782 29.152344-45.546876 20.109375-71.117188-9.046875-25.574219-33.226563-42.664062-60.351563-42.660156zm0 96c-17.671875 0-32-14.328125-32-32s14.328125-32 32-32 32 14.328125 32 32-14.328125 32-32 32zm0 0" fill="#57a4ff"/><path d="m8.128906 248.089844c.03125 32.707031 24.714844 60.128906 57.242188 63.582031 32.523437 3.453125 62.417968-18.171875 69.316406-50.140625 1.921875-8.859375 1.921875-18.023438 0-26.882812-6.898438-31.96875-36.792969-53.59375-69.316406-50.140626-32.527344 3.453126-57.210938 30.875-57.242188 63.582032zm96 0c0 17.671875-14.328125 32-32 32s-32-14.328125-32-32 14.328125-32 32-32 32 14.328125 32 32zm0 0" fill="#57a4ff"/><g fill="#004fac"><path d="m424.128906 112.089844c22.089844 0 40-17.910156 40-40s-17.910156-40-40-40c-22.09375 0-40 17.910156-40 40 .027344 22.082031 17.917969 39.972656 40 40zm0-64c13.253906 0 24 10.746094 24 24s-10.746094 24-24 24-24-10.746094-24-24 10.746094-24 24-24zm0 0"/><path d="m424.128906 352.089844c-18.632812-.003906-36.53125 7.25-49.90625 20.222656l-230.703125-115.3125c.8125-5.910156.8125-11.910156 0-17.820312l230.703125-115.3125c24.652344 23.675781 62.5625 26.730468 90.683594 7.308593 28.125-19.425781 38.691406-55.960937 25.273438-87.398437-13.414063-31.4375-47.105469-49.085938-80.585938-42.21875-33.484375 6.867187-57.507812 36.351562-57.464844 70.53125.019532 2.980468.222656 5.957031.609375 8.910156l-230.707031 115.3125c-28.363281-27.40625-73.5-26.894531-101.234375 1.15625-27.730469 28.050781-27.730469 73.191406 0 101.242188 27.734375 28.050781 72.871094 28.5625 101.234375 1.15625l230.707031 115.3125c-3.707031 29.710937 11.359375 58.613281 37.839844 72.585937 26.480469 13.976563 58.84375 10.101563 81.28125-9.722656 22.4375-19.828125 30.261719-51.46875 19.652344-79.46875-10.613281-27.996094-37.441407-46.507813-67.382813-46.484375zm0-336c30.925782 0 56 25.070312 56 56 0 30.929687-25.074218 56-56 56-30.929687 0-56-25.070313-56-56 .035156-30.914063 25.085938-55.964844 56-56zm-60.359375 95.113281-224.152343 112.039063c-1.839844-5.003907-4.230469-9.789063-7.128907-14.265626l224.152344-112c1.839844 4.992188 4.230469 9.761719 7.128906 14.226563zm-291.640625 192.886719c-30.929687 0-56-25.070313-56-56 0-30.929688 25.070313-56 56-56 30.925782 0 56 25.070312 56 56-.035156 30.914062-25.085937 55.964844-56 56zm60.359375-16.886719c2.898438-4.476563 5.289063-9.261719 7.128907-14.265625l224.152343 112c-2.898437 4.476562-5.289062 9.257812-7.128906 14.265625zm291.640625 192.886719c-30.929687 0-56-25.070313-56-56 0-30.929688 25.070313-56 56-56 30.925782 0 56 25.070312 56 56-.035156 30.914062-25.085937 55.964844-56 56zm0 0"/><path d="m424.128906 384.089844c-22.09375 0-40 17.910156-40 40s17.90625 40 40 40c22.089844 0 40-17.910156 40-40-.027344-22.082032-17.921875-39.972656-40-40zm0 64c-13.253906 0-24-10.746094-24-24s10.746094-24 24-24 24 10.746094 24 24-10.746094 24-24 24zm0 0"/><path d="m72.128906 208.089844c-22.09375 0-40 17.910156-40 40s17.90625 40 40 40c22.089844 0 40-17.910156 40-40-.027344-22.082032-17.921875-39.972656-40-40zm0 64c-13.253906 0-24-10.746094-24-24s10.746094-24 24-24 24 10.746094 24 24-10.746094 24-24 24zm0 0"/></g></svg>